HIERARCHY
ROOT Hips
{
	OFFSET 29.037800 20.009985 98.647102
	CHANNELS 6 Xposition Yposition Zposition Xrotation Yrotation Zrotation
	JOINT spine
	{
		OFFSET 0.000000 -0.477352 8.301041
		CHANNELS 3 Xrotation Yrotation Zrotation
		JOINT spine1
		{
			OFFSET 0.000000 -0.000002 10.456497
			CHANNELS 3 Xrotation Yrotation Zrotation
			JOINT spine2
			{
				OFFSET 0.000000 -0.000002 10.019203
				CHANNELS 3 Xrotation Yrotation Zrotation
				JOINT Neck
				{
					OFFSET 0.000000 -1.226414 25.723495
					CHANNELS 3 Xrotation Yrotation Zrotation
					JOINT Head
					{
						OFFSET 0.000000 -0.000002 7.771744
						CHANNELS 3 Xrotation Yrotation Zrotation
						End Site
						{
							OFFSET 0.000000 6.203938 18.811996
						}
					}
				}
				JOINT RightShoulder
				{
					OFFSET -4.218800 0.587437 10.819992
					CHANNELS 3 Xrotation Yrotation Zrotation
					JOINT RightArm
					{
						OFFSET 0.000000 -0.000002 14.191406
						CHANNELS 3 Xrotation Yrotation Zrotation
						JOINT RightArmRoll
						{
							OFFSET 0.000000 -0.000002 7.164093
							CHANNELS 3 Xrotation Yrotation Zrotation
							JOINT RightForeArm
							{
								OFFSET 0.000000 -0.000002 20.866501
								CHANNELS 3 Xrotation Yrotation Zrotation
								JOINT RightForeArmRoll
								{
									OFFSET 0.000000 -0.000002 8.039215
									CHANNELS 3 Xrotation Yrotation Zrotation
									JOINT RightHand
									{
										OFFSET 0.000000 -0.000002 16.132996
										CHANNELS 3 Xrotation Yrotation Zrotation
										End Site
										{
											OFFSET 0.000000 0.000000 0.100006
										}
									}
								}
							}
						}
					}
				}
				JOINT LeftShoulder
				{
					OFFSET 4.218800 0.587437 10.819992
					CHANNELS 3 Xrotation Yrotation Zrotation
					JOINT LeftArm
					{
						OFFSET 0.000000 -0.000002 14.191406
						CHANNELS 3 Xrotation Yrotation Zrotation
						JOINT LeftArmRoll
						{
							OFFSET 0.000000 -0.000002 7.164078
							CHANNELS 3 Xrotation Yrotation Zrotation
							JOINT LeftForeArm
							{
								OFFSET 0.000000 -0.000002 20.866501
								CHANNELS 3 Xrotation Yrotation Zrotation
								JOINT LeftForeArmRoll
								{
									OFFSET 0.000000 -0.000002 8.039215
									CHANNELS 3 Xrotation Yrotation Zrotation
									JOINT LeftHand
									{
										OFFSET 0.000000 -0.000002 16.132996
										CHANNELS 3 Xrotation Yrotation Zrotation
										End Site
										{
											OFFSET 0.000000 0.000000 0.100006
										}
									}
								}
							}
						}
					}
				}
			}
		}
	}
	JOINT RightUpLeg
	{
		OFFSET -7.357731 1.131809 -1.349213
		CHANNELS 3 Xrotation Yrotation Zrotation
		JOINT RightUpLegRoll
		{
			OFFSET 0.000000 -0.000004 18.916801
			CHANNELS 3 Xrotation Yrotation Zrotation
			JOINT RightLeg
			{
				OFFSET 0.000000 0.000004 -23.425598
				CHANNELS 3 Xrotation Yrotation Zrotation
				JOINT RightLegRoll
				{
					OFFSET 0.000000 -0.000004 23.502304
					CHANNELS 3 Xrotation Yrotation Zrotation
					JOINT RightFoot
					{
						OFFSET 0.000000 -0.000004 19.561707
						CHANNELS 3 Xrotation Yrotation Zrotation
						JOINT RightToeBase
						{
							OFFSET 0.000000 -0.000002 16.352600
							CHANNELS 3 Xrotation Yrotation Zrotation
							End Site
							{
								OFFSET 0.006931 0.912834 7.919434
							}
						}
					}
				}
			}
		}
	}
	JOINT LeftUpLeg
	{
		OFFSET 7.357731 1.131809 -1.349213
		CHANNELS 3 Xrotation Yrotation Zrotation
		JOINT LeftUpLegRoll
		{
			OFFSET 0.000000 -0.000004 18.916901
			CHANNELS 3 Xrotation Yrotation Zrotation
			JOINT LeftLeg
			{
				OFFSET 0.000000 -0.000004 23.425499
				CHANNELS 3 Xrotation Yrotation Zrotation
				JOINT LeftLegRoll
				{
					OFFSET 0.000000 -0.000004 23.719498
					CHANNELS 3 Xrotation Yrotation Zrotation
					JOINT LeftFoot
					{
						OFFSET 0.000000 -0.000004 19.344406
						CHANNELS 3 Xrotation Yrotation Zrotation
						JOINT LeftToeBase
						{
							OFFSET 0.000000 -0.000002 16.352600
							CHANNELS 3 Xrotation Yrotation Zrotation
							End Site
							{
								OFFSET -0.031063 0.912834 7.919434
							}
						}
					}
				}
			}
		}
	}
}
MOTION
Frames: 13
Frame Time: 0.041667
32.702599 4.216101 98.906578 -3.973327 -0.699825 2.275842 -0.649236 -0.117327 0.239719 2.718543 -0.238673 0.485613 4.363586 -0.232790 0.488563 17.237919 0.085061 -1.808582 -6.350218 1.765786 -1.889831 -2.327794 -74.667642 -4.362085 -83.721167 -117.197659 -59.009597 -0.000000 0.000001 0.000002 0.064471 -8.538156 -0.021738 0.000000 -0.000007 -3.057782 -5.000232 -7.998922 0.000125 11.656449 66.842601 -12.059758 -62.343569 111.325328 48.059434 0.000000 -0.000000 0.000000 6.517990 10.524574 -0.012625 -0.000001 -0.000003 3.000001 -5.000239 7.998773 -0.000162 3.387558 -172.234408 3.174483 -179.999991 0.000005 -1.234005 174.764324 -3.045257 -0.597925 -0.000002 0.000003 0.062668 69.061122 6.941075 1.990541 25.456936 -7.348702 0.000006 2.493812 172.025459 -1.571697 -0.000005 -0.000005 -1.341860 -7.074881 2.982499 0.860074 -0.000005 -0.000002 -0.066777 67.255493 -7.016295 -1.927792 25.456967 7.346005 -0.000013 
32.699902 4.216714 98.905174 -3.980896 -0.701183 2.274044 -0.647637 -0.117304 0.239702 2.720714 -0.238913 0.486248 4.365765 -0.233051 0.489192 17.240424 0.090325 -1.805730 -6.354157 1.763427 -1.886830 -2.327802 -74.662246 -4.361594 -83.725436 -117.213436 -59.001298 0.000000 0.000001 0.000000 0.064472 -8.521125 -0.023588 -0.000001 -0.000007 -3.057780 -5.000232 -7.998923 0.000125 11.665867 66.852246 -12.068473 -62.405697 111.330745 48.094620 -0.000001 -0.000000 0.000000 6.476308 10.506640 -0.007625 -0.000003 -0.000003 3.000001 -5.000241 7.998774 -0.000162 3.396951 -172.233493 3.175070 -179.999991 0.000005 -1.234005 174.762753 -3.042271 -0.597736 -0.000002 0.000002 0.062667 69.061545 6.941062 1.990510 25.456935 -7.348702 0.000006 2.504831 172.026524 -1.573853 -0.000005 -0.000004 -1.341850 -7.074734 2.982987 0.860063 -0.000005 -0.000002 -0.066777 67.255609 -7.016344 -1.927995 25.456967 7.346005 -0.000013 
32.708801 4.204247 98.907883 -3.988761 -0.702607 2.272188 -0.645949 -0.117268 0.239676 2.723004 -0.239193 0.486933 4.368055 -0.233363 0.489870 17.242423 0.096069 -1.802856 -6.357651 1.760692 -1.883806 -2.328008 -74.656529 -4.361303 -83.729049 -117.229665 -58.991825 0.000000 0.000000 0.000002 0.064468 -8.503525 -0.025529 -0.000000 -0.000008 -3.057781 -5.000230 -7.998922 0.000125 11.675353 66.862286 -12.077205 -62.468316 111.336557 48.130250 -0.000002 0.000000 0.000000 6.434474 10.488502 -0.002611 -0.000001 -0.000003 3.000001 -5.000241 7.998774 -0.000162 3.406813 -172.233574 3.175672 -179.999991 0.000005 -1.234006 174.761400 -3.039272 -0.597533 -0.000002 0.000002 0.062667 69.061866 6.941076 1.990494 25.456940 -7.348703 0.000006 2.516246 172.027590 -1.576013 -0.000005 -0.000004 -1.341840 -7.074526 2.983434 0.860044 -0.000004 -0.000001 -0.066777 67.255814 -7.016328 -1.928378 25.456971 7.346005 -0.000013 
32.713299 4.206693 98.906487 -3.996814 -0.704078 2.270286 -0.644201 -0.117224 0.239645 2.725383 -0.239500 0.487653 4.370436 -0.233712 0.490585 17.244028 0.102149 -1.799967 -6.360825 1.757689 -1.880762 -2.328347 -74.650525 -4.361122 -83.732136 -117.246208 -58.981552 -0.000001 0.000000 0.000001 0.064468 -8.485515 -0.027529 -0.000002 -0.000007 -3.057781 -5.000230 -7.998922 0.000126 11.684877 66.872538 -12.085918 -62.533722 111.342274 48.168799 -0.000002 -0.000001 -0.000000 6.392554 10.470257 0.002382 -0.000001 -0.000003 3.000000 -5.000241 7.998773 -0.000162 3.417007 -172.233656 3.176310 -179.999991 0.000005 -1.234005 174.760225 -3.036287 -0.597323 -0.000002 0.000003 0.062667 69.062174 6.941061 1.990473 25.456933 -7.348702 0.000005 2.527934 172.028669 -1.578189 -0.000005 -0.000005 -1.341819 -7.074280 2.983862 0.860022 -0.000005 -0.000001 -0.066777 67.256128 -7.016321 -1.928658 25.456971 7.346005 -0.000014 
32.705200 4.185898 98.907272 -4.004984 -0.705573 2.268371 -0.642422 -0.117175 0.239610 2.727804 -0.239823 0.488393 4.372855 -0.234081 0.491318 17.245430 0.108422 -1.797076 -6.363818 1.754529 -1.877711 -2.328779 -74.644515 -4.361035 -83.734875 -117.262887 -58.970679 -0.000000 -0.000000 0.000002 0.064470 -8.467283 -0.029567 -0.000001 -0.000008 -3.057781 -5.000229 -7.998922 0.000124 11.694470 66.883084 -12.094686 -62.599203 111.348107 48.207339 -0.000001 -0.000000 0.000000 6.350565 10.452005 0.007352 -0.000002 -0.000003 3.000001 -5.000242 7.998773 -0.000162 3.427387 -172.232741 3.177031 -179.999991 0.000004 -1.234005 174.759146 -3.033288 -0.597106 -0.000003 0.000002 0.062667 69.062488 6.941077 1.990456 25.456938 -7.348702 0.000006 2.539789 172.029748 -1.580361 -0.000005 -0.000005 -1.341800 -7.074021 2.984270 0.859998 -0.000004 -0.000002 -0.066777 67.256442 -7.016315 -1.929036 25.456971 7.346007 -0.000014 
32.711601 4.187456 98.907585 -4.013187 -0.707075 2.266444 -0.640628 -0.117125 0.239574 2.730244 -0.240151 0.489139 4.375297 -0.234455 0.492057 17.246839 0.114742 -1.794181 -6.366758 1.751328 -1.874657 -2.329224 -74.638408 -4.360959 -83.737593 -117.279553 -58.959682 0.000000 0.000001 0.000000 0.064467 -8.448984 -0.031614 -0.000003 -0.000007 -3.057780 -5.000231 -7.998922 0.000125 11.704027 66.893534 -12.103399 -62.664650 111.353967 48.245827 0.000001 -0.000001 0.000000 6.308577 10.433646 0.012305 -0.000003 -0.000003 3.000001 -5.000241 7.998773 -0.000162 3.437824 -172.232837 3.177712 -179.999991 0.000005 -1.234005 174.758081 -3.029298 -0.597795 -0.000002 0.000003 0.062667 69.062802 6.941057 1.990432 25.456933 -7.348701 0.000005 2.551680 172.030813 -1.582535 -0.000005 -0.000004 -1.341790 -7.073743 2.984690 0.859972 -0.000005 -0.000002 -0.066778 67.256757 -7.016307 -1.929315 25.456969 7.346003 -0.000013 
32.709801 4.191625 98.905388 -4.021326 -0.708564 2.264528 -0.638853 -0.117078 0.239539 2.732654 -0.240470 0.489873 4.377706 -0.234818 0.492785 17.248338 0.120968 -1.791288 -6.369799 1.748208 -1.871611 -2.329630 -74.632398 -4.360846 -83.740496 -117.296123 -58.949095 0.000001 0.000000 -0.000000 0.064472 -8.430817 -0.033644 -0.000002 -0.000007 -3.057780 -5.000228 -7.998923 0.000124 11.713637 66.903971 -12.112187 -62.727658 111.360231 48.281740 -0.000001 -0.000000 0.000001 6.266621 10.415375 0.017214 -0.000002 -0.000003 3.000000 -5.000237 7.998772 -0.000162 3.448158 -172.232905 3.178379 -179.999991 0.000005 -1.234005 174.756961 -3.026313 -0.597581 -0.000002 0.000003 0.062667 69.063123 6.941074 1.990415 25.456935 -7.348703 0.000006 2.563482 172.032876 -1.584663 -0.000005 -0.000004 -1.341769 -7.073486 2.985109 0.859949 -0.000004 -0.000002 -0.066777 67.256968 -7.016328 -1.929605 25.456965 7.346004 -0.000014 
32.712200 4.185204 98.906281 -4.029319 -0.710019 2.262647 -0.637121 -0.117036 0.239510 2.735004 -0.240770 0.490583 4.380056 -0.235156 0.493490 17.250044 0.126952 -1.788410 -6.373056 1.745275 -1.868568 -2.329935 -74.626497 -4.360635 -83.743747 -117.312556 -58.939021 0.000003 0.000000 0.000001 0.064468 -8.412916 -0.035630 -0.000002 -0.000007 -3.057780 -5.000229 -7.998922 0.000125 11.723194 66.914223 -12.120947 -62.792606 111.365886 48.319774 0.000002 -0.000001 -0.000000 6.224747 10.397197 0.022091 -0.000002 -0.000003 3.000001 -5.000241 7.998773 -0.000162 3.458259 -172.231990 3.179064 -179.999991 0.000005 -1.234005 174.755717 -3.023314 -0.597372 -0.000002 0.000002 0.062667 69.063444 6.941056 1.990491 25.456935 -7.348703 0.000006 2.575099 172.033955 -1.586828 -0.000005 -0.000005 -1.341761 -7.073259 2.985537 0.859927 -0.000005 -0.000002 -0.066777 67.257289 -7.016324 -1.929884 25.456967 7.346003 -0.000012 
32.710300 4.166056 98.906082 -4.037092 -0.711419 2.260801 -0.635463 -0.117004 0.239486 2.737264 -0.241037 0.491253 4.382317 -0.235453 0.494154 17.252247 0.132554 -1.785545 -6.376680 1.742649 -1.865559 -2.330077 -74.620882 -4.360274 -83.747477 -117.328566 -58.929793 0.000002 0.000000 0.000000 0.064467 -8.395485 -0.037540 0.000000 -0.000007 -3.057780 -5.000232 -7.998922 0.000125 11.732663 66.924065 -12.129675 -62.857152 111.371316 48.357541 -0.000000 0.000001 -0.000000 6.182997 10.379105 0.026927 -0.000002 -0.000003 3.000001 -5.000237 7.998774 -0.000162 3.467979 -172.232086 3.179637 -179.999991 0.000005 -1.234005 174.754310 -3.020316 -0.597172 -0.000002 0.000003 0.062667 69.063758 6.941073 1.990474 25.456935 -7.348701 0.000005 2.586391 172.035021 -1.588988 -0.000005 -0.000004 -1.341750 -7.073061 2.986005 0.859912 -0.000004 -0.000002 -0.066777 67.257487 -7.016304 -1.930266 25.456971 7.346005 -0.000013 
32.707298 4.166265 98.903687 -4.044555 -0.712748 2.259024 -0.633900 -0.116984 0.239473 2.739384 -0.241260 0.491870 4.384437 -0.235692 0.494764 17.254849 0.137627 -1.782698 -6.380804 1.740449 -1.862568 -2.330003 -74.615582 -4.359706 -83.752060 -117.344235 -58.921849 -0.000001 0.000000 0.000001 0.064468 -8.378687 -0.039357 -0.000000 -0.000007 -3.057782 -5.000231 -7.998923 0.000126 11.742100 66.933497 -12.138435 -62.918712 111.376773 48.392208 -0.000002 -0.000001 0.000001 6.141421 10.361100 0.031729 -0.000002 -0.000003 3.000000 -5.000238 7.998772 -0.000162 3.477171 -172.232154 3.180140 -179.999991 0.000005 -1.234005 174.752644 -3.017328 -0.596986 -0.000002 0.000003 0.062667 69.064086 6.941088 1.990459 25.456938 -7.348702 0.000006 2.597257 172.036086 -1.591139 -0.000005 -0.000005 -1.341740 -7.072934 2.986501 0.859902 -0.000004 -0.000001 -0.066777 67.257597 -7.016316 -1.930563 25.456969 7.346008 -0.000015 
32.718697 4.164026 98.903580 -4.051606 -0.713983 2.257328 -0.632456 -0.116981 0.239471 2.741344 -0.241427 0.492416 4.386397 -0.235860 0.495303 17.258254 0.142029 -1.779873 -6.385571 1.738782 -1.859618 -2.329638 -74.610685 -4.358870 -83.757667 -117.359329 -58.915695 0.000002 0.000000 -0.000001 0.064468 -8.362685 -0.041048 -0.000001 -0.000007 -3.057779 -5.000228 -7.998922 0.000124 11.751459 66.942452 -12.147228 -62.979446 111.381746 48.426205 -0.000000 0.000001 -0.000000 6.100047 10.343385 0.036465 -0.000000 -0.000003 3.000001 -5.000240 7.998774 -0.000162 3.485719 -172.231225 3.180614 -179.999991 0.000005 -1.234005 174.750677 -3.014326 -0.596815 -0.000002 0.000002 0.062667 69.064510 6.941073 1.990528 25.456938 -7.348703 0.000004 2.607571 172.037138 -1.593273 -0.000005 -0.000004 -1.341740 -7.072878 2.987037 0.859899 -0.000004 -0.000002 -0.066777 67.257706 -7.016325 -1.930757 25.456971 7.346006 -0.000014 
32.717400 4.157034 98.921486 -4.058176 -0.715106 2.255727 -0.631161 -0.116998 0.239483 2.743104 -0.241527 0.492877 4.388157 -0.235940 0.495758 17.262458 0.145615 -1.777089 -6.391116 1.737760 -1.856702 -2.328950 -74.606382 -4.357726 -83.764429 -117.373659 -58.911392 0.000001 -0.000001 0.000002 0.064472 -8.347666 -0.042588 -0.000001 -0.000007 -3.057781 -5.000231 -7.998922 0.000124 11.760713 66.950689 -12.156002 -63.036827 111.386486 48.456866 -0.000001 -0.000001 -0.000000 6.058936 10.325754 0.041147 -0.000002 -0.000003 3.000001 -5.000238 7.998773 -0.000162 3.493449 -172.231280 3.180920 -179.999991 0.000005 -1.234005 174.748300 -3.011335 -0.597664 -0.000003 0.000002 0.062667 69.065029 6.941068 1.990494 25.456940 -7.348701 0.000005 2.617217 172.038204 -1.595394 -0.000005 -0.000005 -1.341759 -7.072911 2.987643 0.859908 -0.000005 -0.000002 -0.066777 67.257597 -7.016317 -1.931163 25.456969 7.346005 -0.000015 
32.699501 4.150064 98.917480 -4.064176 -0.716096 2.254231 -0.630040 -0.117039 0.239512 2.744624 -0.241547 0.493240 4.389677 -0.235918 0.496114 17.267661 0.148242 -1.774340 -6.397555 1.737510 -1.853843 -2.327852 -74.602693 -4.356212 -83.772728 -117.387196 -58.909651 -0.000000 -0.000000 0.000001 0.064471 -8.333795 -0.043951 -0.000001 -0.000007 -3.057782 -5.000230 -7.998922 0.000125 11.769816 66.958120 -12.164765 -63.095396 111.390092 48.489149 -0.000002 0.000000 -0.000000 6.018136 10.308507 0.045768 -0.000001 -0.000003 3.000001 -5.000237 7.998773 -0.000162 3.500230 -172.231334 3.181087 -179.999991 0.000005 -1.234005 174.745445 -3.009322 -0.597630 -0.000003 0.000003 0.062667 69.065561 6.941096 1.990367 25.456938 -7.348701 0.000006 2.626065 172.039269 -1.597494 -0.000005 -0.000004 -1.341781 -7.073057 2.988306 0.859929 -0.000004 -0.000002 -0.066778 67.257494 -7.016303 -1.931367 25.456971 7.346005 -0.000014 
